<svg width="390" height="408" viewBox="0 0 390 408" fill="none" xmlns="http://www.w3.org/2000/svg">
<mask id="mask0_477_38" style="mask-type:luminance" maskUnits="userSpaceOnUse" x="0" y="0" width="391" height="408">
<path d="M0 407.4C0 407.4 21.6 402.4 47.7 368.1C73.8 333.8 95.7 303.5 137 298.4C178.3 293.3 195.7 300.4 223.9 311.3C252.1 322.1 286.5 340.5 328 291.6C369.5 242.7 390.1 309.3 390.1 309.3V0H0V407.4Z" fill="white"/>
</mask>
<g mask="url(#mask0_477_38)">
<mask id="mask1_477_38" style="mask-type:luminance" maskUnits="userSpaceOnUse" x="-280" y="-103" width="754" height="538">
<path d="M474 -91.9V423.7C474 429.7 469.5 434.6 464 434.6H-269.1C-274.6 434.6 -279.1 429.7 -279.1 423.7V-91.9C-279.1 -97.9 -274.6 -102.8 -269.1 -102.8H464C469.5 -102.8 474 -97.9 474 -91.9Z" fill="white"/>
</mask>
<g mask="url(#mask1_477_38)">
<g opacity="0.08">
<path d="M479.1 -123.2H-4.30005V394.5H479.1V-123.2Z" fill="url(#paint0_linear_477_38)"/>
<path d="M242.5 199.7C288.008 199.7 324.9 162.808 324.9 117.3C324.9 71.7918 288.008 34.9 242.5 34.9C196.992 34.9 160.1 71.7918 160.1 117.3C160.1 162.808 196.992 199.7 242.5 199.7Z" fill="url(#paint1_linear_477_38)"/>
<path d="M479.6 177.1C466.3 172.9 453.1 168.9 439.3 165.6C417.5 160.9 397.5 148.5 377.5 153.3C341.2 162.8 308.5 182.7 268.5 184.6C237.6 186.5 214 168.5 186.7 159C183.1 158.1 179.4 159 175.8 159C155.8 162.8 146.7 178 126.7 171.3C84.8998 157.1 70.3998 132.4 26.7999 118.2C15.0999 114.5 4.69985 115.4 -4.40015 118.6V261.6C31.9999 262.4 68.3999 262.8 104.9 260.4C155.8 256.6 186.5 255.7 232 243.4C255.6 236.8 283 223.4 310.3 218.7C350.3 213 384.8 201.6 424.8 197.9C442.8 196.4 461.4 196.2 479.6 197.3" fill="url(#paint2_linear_477_38)"/>
<path d="M416.1 184.9C369.3 191.6 328.8 211.7 282 221.7C250.1 230.1 216 210 188.3 221.7C135.1 243.4 101 288.6 41.3999 295.3C26.9999 296.7 12.4999 297.6 -1.90015 298V394.6H480.2V183.9C459 182 437.3 182.3 416.1 184.9Z" fill="url(#paint3_linear_477_38)"/>
<path d="M479.6 276.4C375.5 283.7 273.2 268.2 174 237.6C146.7 231.4 115.9 228.3 88.5999 229.9C56.8999 230.9 26.6999 219.6 -4.40015 212.8V394.7H479" fill="#54A7C6"/>
<path opacity="0.1" d="M148.4 304.9C126.6 295.8 104.8 283.1 99.3999 257.7C98.2999 248.6 99.2999 237.4 104.6 229.4C99.0999 229.4 93.7999 229.5 88.4999 229.8C56.7999 230.8 26.6999 219.5 -4.40015 212.7V394.6H479V357C367.5 353.2 256.7 342.3 148.4 304.9Z" fill="url(#paint4_linear_477_38)"/>
<path d="M479.6 200.6C428.2 211.9 382.9 222.3 347.3 264.3C334.6 279.4 310.2 304.6 288.5 302.1C211.6 293.2 196.7 331.1 149.5 337.8C94 345.5 43.7 339.4 -4.30005 364.5V394.6H479.1" fill="#4591CB"/>
<path opacity="0.2" d="M480.3 200.6C449 207.5 419.9 214.1 394 227.6C403.6 289.2 347.3 325.4 291.1 339.4C280.2 343 269.3 355.8 260.2 366.7C243.8 381.2 222 383.1 202.1 381.2C167.6 381.2 131.2 366.7 96.7 377.6C86.2 380.6 76.9 386.7 68.7 394.6H480.4V200.6H480.3Z" fill="url(#paint5_linear_477_38)"/>
</g>
<path d="M182.7 466.5C164.6 453.2 139.9 458.1 120.4 447.5C105.9 438.4 94.9999 418.4 80.3999 414.8C7.69986 391.2 7.69986 302.1 -19.5001 245.8C-26.3001 232.2 -36.7001 217.1 -48.9001 203.7V469.9H182.6C182.6 468.8 182.7 467.7 182.7 466.5Z" fill="#274251"/>
<path d="M479.9 98.9C477 100.3 474.4 102.2 472.3 105C455.9 128.6 443.2 152.2 428.7 177.7C410.5 206.8 432.3 244.9 414.2 270.4C397.8 294 383.3 312.2 368.8 337.6C363.3 344.9 357.9 348.5 350.6 352.1C323.1 365.8 284.3 368.2 267.9 394.5H480.4" fill="#274251"/>
<path d="M183 204.2C184 204 185.1 204.1 186.2 204.2C189.1 204.6 191.2 203 193.5 201.6C194.6 200.9 195.9 200.5 197 199.8C198.2 199 199.5 198.2 200.3 197.1C201.5 195.5 202.3 193.7 204.5 193C204.8 192.9 204.9 192.2 205 191.7C205.1 191.4 205.1 190.9 205.3 190.7C206.4 189.6 207 189.7 207.5 191.3C207.8 192.1 208.2 192.8 208.6 193.6C208.6 195.4 208.4 197 207.9 198.6C209.4 210.7 208.8 220 202.8 232.5C202.1 234 202.4 236.3 203.4 237.7C205.3 240.5 199.4 244 201.9 248C202.1 248.4 202.6 248.7 203.1 248.7C204.5 248.8 205.9 248.9 206 249C208.5 250 208 251.7 207.9 252.2C207.6 255.2 206.9 258.2 206.8 261.1C206.7 264.6 207 268 207.4 271.5C207.6 273.3 207.8 275 208.1 276.8C208.2 281.4 208.6 286 209.5 290.4C209.1 291.9 209.5 293.5 209.8 295.2C210.2 297.3 210.3 299.4 210.6 301.4C211 304.8 211.7 308.2 211.3 311.6C211.1 313.1 211.6 314.5 212.5 315.6C216.4 319.9 214.3 324.6 213.9 329.3C213.5 333.8 213.3 338.6 214.1 343C215.3 349.2 217.7 355.1 219.3 361.2C220.2 364.8 220.6 368.5 221.2 372.2C221.2 372.5 220.9 373 220.7 373C219.3 373 219.4 373.8 219.8 374.8C220 375.3 219.9 376 220 376.5C220.5 379.1 221 381.6 221.5 384.1C221.5 384.4 221.5 384.8 221.5 385.1C221.2 386.7 221.1 388.4 220.6 389.9C220.1 391.4 219.6 392.9 218.9 394.3H237C236.9 392.7 236.8 391.1 236.7 389.5C236.4 386.3 235.8 383.2 235.4 380.1C235.3 379.7 235.5 379 235.6 378.5C236.3 376.1 235.8 373.6 234.3 372.1C230.7 368.4 232.9 364.2 232.7 360.3C232.6 359.1 233 358 233.1 356.8C233.7 349 234.4 341.2 233.1 333.4C232.2 328.1 233.1 323 235 318.1C235 318 235.1 317.9 235.1 317.8C235.5 316 235.8 314.4 237.1 312.9C238.2 311.7 238.6 309.8 239.1 308.1C240.1 305 240.9 302 241.8 299C242.2 301.5 242.8 304.2 242.9 307C243 308.7 242.2 310.5 241.9 312.2C241.8 312.7 242.1 313.5 242.5 313.7C244.1 314.5 244.8 315.5 245.3 317.4C246.3 321.5 248.2 325.4 249.3 329.5C250 332.2 250.3 335.1 250.2 337.9C250.1 342.3 249.1 346.7 249.3 351.1C249.6 356 250.9 360.9 251.7 365.7C252 367.4 252.3 369.1 252.6 370.8C252.6 371.1 252.3 371.7 252 371.9C250.6 373.1 250.8 374.9 252.3 375.9C252.6 376.1 252.7 377 252.6 377.2C250.2 379.8 249.6 383.6 251.1 386.9C251.3 387.4 251.3 388 251.2 388.5C251.1 390.2 251 392 250.6 393.7C250.5 393.9 250.5 394.1 250.4 394.4H274.3C273.9 392.2 273 390.1 271.7 388.8C271.2 388.2 270.5 387.6 269.8 387.4C267.9 386.8 267.9 385.6 268.1 384C268.3 382.5 268.1 380.8 267.7 379.3C267.5 378.3 266.4 377.5 266.3 376.6C266.1 374.9 266.3 373.1 266.6 371.3C267.4 366.3 268.4 361.4 269.3 356.4C269.9 352.8 270.6 349.3 271.1 345.7C271.8 341.3 271.1 337 269.7 332.9C268 327.9 268.5 322.7 268.6 317.6C268.6 317.2 269.5 316.9 269.9 316.5C270.3 316.1 270.9 315.6 271 315.1C271.3 311.4 271.2 307.6 271.7 304C272.6 296.9 274 289.8 274.7 282.7C275.2 277.9 274.9 273 274.9 268.1C274.9 267.5 275.4 267 275.3 266.5C275.2 265.1 274.9 263.6 274.7 262.2C274.6 261.8 274.5 261.5 274.5 261.1C274.5 257.1 274.5 253 274.5 249C274.5 248.8 275.2 248.4 275.5 248.4C276.5 248.6 277.1 248.5 277.2 247.3C277.4 245.8 277.7 244.2 278.2 242.8C278.3 242.5 279.1 242 279.5 242.1C282.2 242.6 282.7 241.7 283 238.2C283 237.8 283.2 237.4 283.4 237C284.5 235 284.1 233.8 282.1 233.1C281.6 232.9 281 232.4 281 232C280.6 228.8 280.4 225.6 280.1 222.4C280 220.9 279.7 219.3 279.6 217.8C279.5 217.3 279.3 216.8 279.5 216.5C280.2 215 279.2 214 278.8 212.8C278.5 211.9 279 210.7 279.2 209.6C279.6 208.1 280.3 207.4 281.5 209.1C284.4 210.3 287.2 211.7 290.1 212.8C290.8 213 292 212.6 292.6 212.1C294.1 210.8 295.3 209.2 296.5 207.6C296.7 207.4 296.7 207.1 296.6 206.8C295.9 204.4 296.6 202.6 298 200.7C300.1 197.8 299.6 195.6 297 192.8C297 192.7 297 192.7 296.9 192.6C297 191 297 189.4 296.6 188C296.2 186.3 295.3 184.7 294.1 183.5C293.7 183.1 293 182.7 292.3 182.2C291.6 181 290.8 179.8 290.1 178.5C290 178.3 289.8 178 289.8 177.7C290.3 173.3 289 169.1 287.5 165.1C286.4 162.3 284.5 159.9 283 157.2C282.9 157 282.8 156.7 282.6 156.4C282.9 156.4 283.2 156.3 283.4 156.3C283.6 156.3 283.7 156.3 283.9 156.3C288.6 156.4 287.8 157 288.5 152.3C289 148.5 288.4 144.4 288.1 140.5C288.1 140.1 287.3 139.5 286.8 139.5C281.7 139.6 276.5 139.7 271.4 139.9C271.1 139.9 270.8 139.9 270.6 139.9C270.3 139.1 270 138.4 269.6 137.7C269.1 136.9 268.3 136.1 268 135.2C267.8 134.6 267.7 134 267.6 133.4C267.7 132.9 267.6 132.5 267.3 132.1C267.2 131.9 267.2 131.7 267 131.4C265.3 128.1 261.8 127.5 258.3 126.9C258.6 125.3 258.9 123.6 259.1 121.8C259.2 121.2 258.3 120.5 257.9 119.8C257.8 119.6 257.5 119.4 257.5 119.2C257.6 116.2 257.8 113.2 257.7 110.3C257.6 108.7 256.8 107.2 256.3 105.7C256.1 105.1 255.6 104.6 255.6 104.1C255.7 102.1 254 101.3 253 100C251.6 98.1 249.6 98 247.6 97.7C246.6 97 245.5 96.4 244.3 96.1C242.2 95.6 240.3 96.5 238.2 96.8C234.7 97.5 232.1 100.8 232.6 104.3C232.2 105 231.7 105.6 231.2 106.1C228.8 108.5 228.9 111.7 228.5 114.7C228.2 116.6 228.5 118.5 227.1 120.3C226.5 121 227.5 122.9 227.7 124.2C227.9 125.2 227.9 126.3 228.1 127.4C226.8 127.4 225.5 127.5 224.2 127.5C224 127.5 223.8 127.3 223.6 127.4C221 128.5 218.3 129.5 215.8 130.7C215.2 131 214.7 132.2 214.7 133C214.7 135 215.1 137.1 215.4 139.1C215.6 140.2 215.1 140.5 214.1 140.5C208.6 140.4 203.1 140.4 197.5 140.3C195.9 140.3 195.5 140.8 195.5 142.3C195.6 146.1 195.5 149.9 195.5 153.7C195.5 155.3 195.9 156.1 197.8 155.9C199.3 155.8 200.8 155.7 202.2 155.6C203.5 155.8 204.9 156 206.2 156.3C206.1 156.3 206 156.3 205.8 156.4C205.1 156.6 204.3 156.9 203.8 157.5C203.1 158.3 202.9 159.5 202.3 160.3C201.7 161.1 200.8 161.8 200 162.5C199.2 163.2 198.4 164 197.6 164.8C194.3 166.9 191.4 169.5 189.2 172.8C188 174.6 187.2 176.6 186.5 178.5C186.2 178.8 185.9 179.1 185.5 179.4C183.5 180.8 181.3 182.1 179.3 183.6C176.6 185.5 175.9 188.5 176.8 191.7C177.1 192.6 176.6 193.8 176.3 194.8C176.1 196 175.5 197.1 175.5 198.2C175.5 199.5 176 200.8 176.5 202C178 204.4 179.8 205 183 204.2Z" fill="#274251"/>
<path d="M-5.9001 311.2C-5.3001 311.9 -4.8001 312.6 -4.2001 313.3C-4.1001 313.5 -3.8001 313.6 -3.6001 313.7C-2.9001 313.9 -2.4001 314.4 -2.4001 315.2C-2.4001 316.1 -1.9001 316.5 -1.1001 316.7C-0.800097 316.8 -0.600096 316.9 -0.300097 317.1C-0.100096 316.8 -9.72748e-05 316.5 0.199903 316.2C0.599903 315.6 0.899902 315.5 1.5999 315.9C1.6999 316 1.7999 316.1 1.9999 316.1C2.1999 316.2 2.3999 316.3 2.6999 316.4C2.6999 316.2 2.6999 315.9 2.5999 315.7C2.1999 314.7 2.0999 313.7 2.3999 312.7C2.4999 312.3 2.8999 311.8 3.1999 311.6C3.3999 311.5 3.8999 311.9 4.1999 312.1C4.3999 312.2 4.4999 312.3 4.7999 312.5C4.7999 312.1 4.7999 311.9 4.6999 311.7C4.2999 310.2 4.5999 308.9 5.2999 307.6C5.3999 307.4 5.7999 307.2 6.0999 307C6.2999 306.9 6.5999 306.7 6.4999 306.6C6.1999 305.3 6.7999 304.1 6.9999 302.8C7.1999 301.6 7.2999 300.4 7.2999 299.2C7.2999 298.5 7.5999 298 7.9999 297.6C8.3999 297.2 8.9999 297.4 9.2999 298C9.6999 298.8 9.9999 299.6 10.2999 300.4C10.6999 301.5 10.9999 302.7 11.4999 303.8C11.9999 305.1 12.5999 306.3 12.5999 307.8C12.5999 307.9 12.8999 308.2 13.0999 308.2C13.7999 308.2 13.8999 308.6 14.0999 309.2C14.3999 310.3 14.3999 311.4 13.9999 312.5C13.7999 313 13.9999 313.2 14.5999 313.1C15.9999 312.9 16.4999 313.4 16.0999 314.8C15.9999 315.3 15.7999 315.8 15.5999 316.3C15.4999 316.7 15.5999 316.8 15.9999 316.8C17.0999 316.7 17.4999 317 17.4999 318.2C17.4999 319.2 17.0999 320.1 16.7999 320.9C16.7999 321 16.7999 321.1 16.6999 321.3C16.9999 321.2 17.2999 321.2 17.4999 321.1C18.2999 320.9 18.7999 321.2 18.5999 322.1C18.3999 323 17.9999 323.9 17.6999 324.7C17.5999 325.1 17.4999 325.6 17.4999 326C17.5999 327.2 17.1999 328.3 16.6999 329.3C16.3999 329.9 16.0999 330.4 16.2999 331.1C16.4999 332 15.9999 332.8 15.4999 333.6C14.8999 334.7 14.3999 335.9 13.8999 337C13.9999 337.1 14.0999 337.1 14.1999 337.2C14.3999 337 14.4999 336.8 14.5999 336.6C14.7999 336.1 14.9999 335.6 15.1999 335.1C15.3999 334.5 15.8999 334.2 16.4999 334.1C17.0999 334 17.3999 333.7 17.5999 333.1C17.8999 332.3 18.0999 331.4 18.9999 330.9C19.9999 330.3 20.2999 329.9 20.9999 328.9C21.5999 328 22.2999 327.1 23.5999 327.1C23.8999 327.1 24.1999 326.8 24.2999 326.6C25.0999 325.3 26.2999 324.4 27.6999 323.9C27.9999 323.8 28.2999 323.6 28.5999 323.4C29.9999 322.4 31.3999 321.4 32.8999 320.4C32.9999 320.3 33.1999 320.3 33.2999 320.2C33.7999 320.1 33.9999 320.3 33.7999 320.7C33.4999 321.5 33.1999 322.3 32.8999 323.1C32.6999 323.6 32.5999 324.1 32.4999 324.7C32.3999 325.6 32.0999 326.4 31.5999 327.1C31.2999 327.5 31.2999 327.8 31.4999 328.3C31.7999 328.9 31.5999 329.4 31.1999 329.9C30.8999 330.3 30.5999 330.8 30.7999 331.3C30.7999 331.4 30.8999 331.5 30.9999 331.6C31.3999 331.8 31.7999 331.9 32.1999 332.1C32.8999 331.3 33.6999 330.4 34.5999 329.6C34.9999 329.2 35.3999 328.8 35.8999 329.3C37.1999 327.9 38.5999 326.6 39.7999 325.2C40.8999 324 41.8999 322.6 42.8999 321.4C43.4999 320.7 44.0999 320.1 44.7999 319.5C44.9999 319.4 45.2999 319.4 45.4999 319.3C45.4999 319.6 45.6999 319.9 45.5999 320.1C44.5999 322.3 43.5999 324.5 42.5999 326.8C42.1999 327.7 41.8999 328.7 41.4999 329.7C41.2999 330.2 40.9999 330.7 40.6999 331.3C40.5999 331.5 40.5999 331.8 40.6999 331.8C41.3999 332.2 41.2999 332.8 40.9999 333.3C40.1999 334.7 39.5999 336.3 38.3999 337.4C38.3999 337.5 38.3999 337.5 38.3999 337.5C39.3999 338.1 39.5999 338.4 39.0999 339.5C38.5999 340.7 37.8999 341.9 36.7999 342.7C36.5999 342.8 36.4999 343 36.3999 343.1C37.2999 344.1 37.3999 344.4 36.5999 345.5C35.8999 346.4 35.0999 347.2 34.2999 348C34.1999 348.1 33.9999 348.2 33.7999 348.3C34.6999 348.9 34.7999 349.5 34.1999 350.3C33.8999 350.6 33.5999 350.9 33.1999 351.3C33.6999 351.3 34.0999 351.4 34.5999 351.5C34.7999 351.5 35.0999 351.7 35.1999 351.9C35.2999 352 34.9999 352.2 34.8999 352.4C34.7999 352.6 34.6999 352.8 34.6999 353C34.6999 353.4 34.5999 353.5 34.1999 353.5C33.0999 353.5 32.4999 354.3 31.8999 355.1C31.5999 355.5 31.2999 356 30.9999 356.5C30.5999 357 30.1999 357.5 30.0999 358.2C29.9999 358.6 29.4999 358.9 29.1999 359.2C28.8999 359.6 28.4999 359.9 28.0999 360.3C27.8999 360.6 27.8999 360.9 28.1999 360.9C28.5999 361 29.0999 361.1 29.4999 361C29.8999 360.9 30.2999 360.8 30.6999 361C30.9999 361.1 31.3999 361.1 31.5999 361C32.0999 360.7 32.5999 360.7 33.0999 361.1L33.1999 361.2C33.9999 361.4 34.5999 361.9 35.2999 362.1C36.0999 362.3 37.0999 362 37.9999 361.7C38.5999 361.5 38.9999 361.4 39.4999 361.7C40.0999 362.1 40.7999 362.2 41.4999 362.2C42.3999 362.2 43.3999 362.5 44.2999 362.7C44.4999 362.7 44.7999 363 44.7999 363.1C44.7999 363.3 44.5999 363.5 44.3999 363.6C43.5999 364.2 42.8999 364.7 42.0999 365.3C41.2999 365.9 41.2999 366.3 41.9999 367C42.4999 367.5 42.4999 368.2 42.2999 368.8C42.1999 369.3 42.2999 369.7 42.7999 370C43.4999 370.4 43.5999 371 43.4999 371.6C43.2999 372.4 43.9999 372.6 44.3999 372.9C44.4999 373 44.9999 372.7 45.2999 372.6C46.0999 372 46.6999 371.2 47.7999 371C47.9999 371 48.1999 370.7 48.2999 370.5C48.5999 370.1 48.8999 369.6 49.1999 369.2C49.5999 368.8 49.9999 368.5 50.5999 368.7C51.0999 368.8 51.2999 368.6 51.5999 368.2C51.8999 367.8 52.2999 367.4 52.6999 367.1C53.0999 366.8 53.5999 366.7 54.0999 367C54.5999 367.2 54.9999 367.1 55.2999 366.6C55.9999 365.7 56.7999 365 57.9999 365.3C58.1999 365.4 58.5999 365.2 58.7999 365C59.5999 364.3 60.4999 363.8 61.5999 364.2C61.7999 364.3 62.0999 364.2 62.2999 364C63.1999 363.4 64.1999 363 65.2999 362.9C65.8999 362.9 66.4999 362.3 67.0999 362C67.5999 361.8 67.9999 361.7 68.4999 361.6C68.7999 361.5 68.9999 361.6 69.2999 361.5C71.3999 360.5 73.4999 359.4 75.0999 357.7C75.1999 357.6 75.2999 357.5 75.4999 357.4C75.8999 357.2 76.1999 357.4 76.0999 357.8C75.9999 358.1 75.8999 358.4 75.6999 358.7C74.9999 359.9 74.2999 361.2 73.5999 362.4C73.4999 362.6 73.3999 362.9 73.3999 363.1C73.2999 364.4 72.6999 365.5 71.8999 366.5C71.5999 366.9 71.3999 367.4 71.4999 367.9C71.6999 369 71.2999 369.9 70.3999 370.7C69.9999 371 69.7999 371.3 69.9999 371.9C70.1999 372.7 69.7999 373.7 68.9999 374.2C68.4999 374.5 68.2999 374.8 68.4999 375.4C68.7999 376.3 68.3999 377 67.4999 377.4C66.4999 377.9 66.4999 377.9 66.6999 378.9C66.7999 379.4 66.5999 379.8 66.1999 380.1C65.6999 380.3 65.1999 380.4 64.7999 380.6C64.0999 380.8 63.9999 381.2 64.3999 381.8C64.7999 382.4 64.6999 382.8 64.0999 383.2C63.8999 383.4 63.5999 383.5 63.3999 383.7C63.1999 383.9 62.8999 384.1 62.7999 384.3C62.6999 384.5 62.7999 384.9 62.8999 385.1C62.9999 385.2 63.4999 385.2 63.5999 385C64.3999 384.3 65.1999 383.9 66.1999 383.6C66.4999 383.5 66.7999 383.4 67.0999 383.4C68.0999 383.2 68.2999 383.4 68.4999 384.3C68.6999 385.1 69.0999 385.2 69.7999 384.8C70.7999 384.2 71.7999 383.5 72.9999 383.3C73.7999 383.2 73.8999 383.3 73.9999 384.1C73.9999 385.1 74.5999 385.4 75.4999 385C76.2999 384.7 77.1999 384.4 77.9999 384.1C78.2999 384 78.5999 384.1 78.8999 384.1C79.3999 384.1 79.5999 384.4 79.5999 384.9C79.5999 385.7 79.9999 385.9 80.6999 385.7C81.5999 385.4 82.3999 385.1 83.2999 384.9C84.0999 384.7 84.3999 385 84.3999 385.8C84.2999 386.8 84.7999 387.2 85.6999 386.9C86.5999 386.6 87.4999 386.5 88.3999 386.9C88.5999 387 88.8999 387.2 88.9999 387.4C89.1999 388 89.5999 388.2 90.0999 388.1C90.9999 388.1 91.8999 388 92.7999 388.1C92.9999 388.1 93.2999 388.4 93.4999 388.6C93.6999 388.9 93.8999 389.1 94.2999 389.1C95.5999 389.2 96.8999 389.4 98.1999 389.5C99.7999 389.6 101.3 389.8 102.9 389.9C103.7 390 104.4 390 105.2 390.2C105.4 390.2 105.6 390.5 105.8 390.6C105.7 390.8 105.6 391 105.4 391.1C104.5 391.4 103.6 391.7 102.7 392C101.8 392.3 101 392.7 100.1 393.1C99.7999 393.2 99.4999 393.4 99.1999 393.4C98.6999 393.4 98.4999 393.7 98.1999 394.1C97.9999 394.4 97.5999 394.6 97.1999 394.8C96.7999 395 96.2999 395.1 95.8999 395.2C95.2999 395.3 94.8999 395.6 94.6999 396.3C94.5999 396.6 94.2999 396.9 93.9999 397C93.5999 397.2 93.0999 397.3 92.5999 397.3C91.6999 397.3 91.5999 397.4 91.4999 398.4C91.4999 398.6 91.1999 399 90.9999 399C90.1999 399.2 89.2999 399.3 88.4999 399.5C88.2999 399.5 87.9999 399.5 87.7999 399.5C87.2999 399.6 87.0999 399.9 87.1999 400.4C87.3999 401.1 87.0999 401.5 86.3999 401.4C85.4999 401.4 84.4999 401.3 83.5999 401.2C82.6999 401.1 82.5999 401.2 82.5999 402.1C82.5999 402.6 82.3999 402.9 81.7999 402.9C81.0999 402.9 80.2999 402.8 79.5999 402.7C78.8999 402.6 78.7999 402.7 78.5999 403.4C78.4999 403.6 78.2999 404 78.0999 404C77.3999 404.1 76.7999 404.1 76.0999 404C75.3999 403.9 74.6999 403.5 73.8999 403.4C73.2999 403.3 73.0999 403.5 73.0999 404.1C73.0999 404.8 72.5999 405.2 71.9999 404.8C70.6999 403.9 69.2999 404.1 67.8999 403.9C67.4999 403.8 67.1999 403.9 66.8999 404.4C66.7999 404.7 66.2999 404.9 65.9999 405C65.7999 405.1 65.5999 405 65.1999 405.1C65.8999 405.4 66.4999 405.7 67.0999 405.9C67.5999 406.1 67.7999 406.4 67.6999 407C67.4999 407.6 67.7999 407.7 68.2999 407.6C69.3999 407.4 70.3999 407.6 71.3999 408.1C71.8999 408.4 71.9999 408.5 71.5999 409C71.3999 409.3 71.1999 409.7 70.9999 410.1C71.9999 410.2 72.8999 410.2 73.7999 410.4C74.5999 410.6 75.3999 410.9 76.0999 411.3C76.8999 411.7 76.8999 412 76.2999 412.6C76.2999 412.6 76.1999 412.7 76.1999 412.8C76.3999 412.9 76.4999 413 76.5999 413C77.7999 413.6 78.9999 414.2 80.1999 414.9C80.3999 415 80.4999 415.3 80.6999 415.5C80.7999 415.6 80.8999 415.8 81.0999 415.9C81.7999 416.3 82.5999 416.7 83.2999 417.2C84.2999 417.8 85.1999 418.5 86.1999 419C86.8999 419.3 87.5999 419.4 88.2999 419.7C89.0999 420 89.7999 420.4 90.4999 420.7C90.6999 420.8 90.8999 421.1 90.9999 421.4C90.6999 421.5 90.4999 421.7 90.1999 421.7C89.6999 421.7 89.0999 421.7 88.7999 421.2C88.6999 421.1 88.2999 421 88.1999 421.1C87.6999 421.5 87.1999 421.4 86.6999 421.4C85.2999 421.3 83.9999 421.1 82.5999 420.9C82.1999 420.8 81.6999 420.8 81.1999 420.8C81.6999 421.4 82.0999 421.9 82.4999 422.5C49.4999 419 16.3999 415.5 -16.6001 412C-13.0001 378 -9.5001 344.6 -5.9001 311.2Z" fill="#274251"/>
<path d="M394.9 43.4L383.5 53.4C383.2 53.6 382.8 53.7 382.5 53.5L369 44.5C368.2 44 367.3 44.9 367.8 45.7L379.7 62.6C380 63 380.5 63.1 380.9 62.8L384.2 60.2C384.8 59.7 385.7 59.5 386.5 59.6L391.9 60.4C392.6 60.5 393.1 59.7 392.7 59.1L390.4 55.9C390.2 55.6 390.2 55.3 390.3 55L396 44.4C396.6 43.6 395.6 42.8 394.9 43.4Z" fill="#274251"/>
<path d="M321.7 90.7L309.8 85.5C309.6 85.4 309.3 85.4 309.1 85.5L300.2 90.5C299.4 90.9 299.8 92.1 300.7 92L309.7 91C309.9 91 310.1 91 310.2 91.1L322.6 99.3C323 99.5 323.5 99.4 323.7 99.1L330.4 88.5C330.6 88.2 330.9 88.1 331.2 88.1L335.7 88.7C336.5 88.8 336.9 87.7 336.3 87.3L330.1 83C329.8 82.8 329.3 82.8 329 83.1L322.7 90.4C322.4 90.8 322 90.9 321.7 90.7Z" fill="#274251"/>
<path d="M375.8 100.4L368 97C367.9 96.9 367.7 96.9 367.5 97L361.7 100.2C361.2 100.5 361.4 101.2 362 101.2L367.9 100.6C368 100.6 368.1 100.6 368.2 100.7L376.3 106.1C376.5 106.3 376.9 106.2 377 105.9L381.4 99C381.5 98.8 381.7 98.7 381.9 98.8L384.8 99.2C385.3 99.3 385.6 98.6 385.2 98.3L381.2 95.5C381 95.3 380.7 95.4 380.5 95.6L376.4 100.4C376.2 100.5 376 100.5 375.8 100.4Z" fill="#274251"/>
<path d="M363 38.6C361.8 38.6 361.8 40.5 363 40.5C364.2 40.6 364.2 38.6 363 38.6Z" fill="white"/>
<path d="M382.5 7.60001C381.3 7.60001 381.3 9.50001 382.5 9.50001C383.7 9.50001 383.7 7.60001 382.5 7.60001Z" fill="white"/>
<path d="M260.8 71.4C259.6 71.4 259.6 73.3 260.8 73.3C262.1 73.3 262.1 71.4 260.8 71.4Z" fill="white"/>
<path d="M4.49985 8.10001C3.29985 8.10001 3.29985 10 4.49985 10C5.79985 10.1 5.79985 8.10001 4.49985 8.10001Z" fill="white"/>
<path d="M189.5 34.1C188.3 34.1 188.3 36 189.5 36C190.8 36.1 190.8 34.1 189.5 34.1Z" fill="white"/>
<path d="M61.1 54.7C59.9 54.7 59.9 56.6 61.1 56.6C62.3 56.6 62.3 54.7 61.1 54.7Z" fill="white"/>
<path d="M101.6 20.4C100.4 20.4 100.4 22.3 101.6 22.3C102.8 22.3 102.8 20.4 101.6 20.4Z" fill="white"/>
<path d="M25.0998 31.1C23.1998 31.1 23.1998 34 25.0998 34C26.8998 34 26.8998 31.1 25.0998 31.1Z" fill="white"/>
<path d="M148.1 81.2C146.2 81.2 146.2 84.1 148.1 84.1C150 84.1 150 81.2 148.1 81.2Z" fill="white"/>
<path d="M146.7 35.1C144.8 35.1 144.8 38 146.7 38C148.6 38 148.6 35.1 146.7 35.1Z" fill="white"/>
<path d="M63.0998 111.3C61.1998 111.3 61.1998 114.2 63.0998 114.2C64.9998 114.2 64.9998 111.3 63.0998 111.3Z" fill="white"/>
<path d="M255.7 29.2C253.8 29.2 253.8 32.1 255.7 32.1C257.6 32.1 257.6 29.2 255.7 29.2Z" fill="white"/>
<path d="M211.9 11.5C210 11.5 210 14.4 211.9 14.4C213.8 14.4 213.8 11.5 211.9 11.5Z" fill="white"/>
<path d="M324.5 45.1C322.6 45.1 322.6 48 324.5 48C326.3 48 326.4 45.1 324.5 45.1Z" fill="white"/>
<path d="M381.1 79.9C379.2 79.9 379.2 82.8 381.1 82.8C383 82.8 383 79.9 381.1 79.9Z" fill="white"/>
<path d="M336.3 68.5C334.4 68.5 334.4 71.4 336.3 71.4C338.1 71.4 338.1 68.5 336.3 68.5Z" fill="white"/>
<path d="M308.4 19.5C306.5 19.5 306.5 22.4 308.4 22.4C310.2 22.4 310.3 19.5 308.4 19.5Z" fill="white"/>
<path d="M259.9 5.70001C258 5.70001 258 8.60001 259.9 8.60001C261.8 8.50001 261.8 5.70001 259.9 5.70001Z" fill="white"/>
<path d="M50.0998 15.7C48.1998 15.7 48.1998 18.6 50.0998 18.6C51.9998 18.6 51.9998 15.7 50.0998 15.7Z" fill="white"/>
<path d="M155.2 10.1C153.3 10.1 153.3 13 155.2 13C157 12.9 157 10.1 155.2 10.1Z" fill="white"/>
<path d="M371.3 115.9C369.4 115.9 369.4 118.8 371.3 118.8C373.2 118.8 373.2 115.9 371.3 115.9Z" fill="white"/>
<path d="M213.3 61.3C211.4 61.3 211.4 64.2 213.3 64.2C215.2 64.2 215.2 61.3 213.3 61.3Z" fill="white"/>
<path d="M285.8 36.6C283.9 36.6 283.9 39.5 285.8 39.5C287.7 39.4 287.7 36.6 285.8 36.6Z" fill="white"/>
<path d="M350.9 18.1C349 18.1 349 21 350.9 21C352.7 21 352.7 18.1 350.9 18.1Z" fill="white"/>
<path d="M98.5 68.2C96.6 68.2 96.6 71.1 98.5 71.1C100.4 71.1 100.4 68.2 98.5 68.2Z" fill="white"/>
<path d="M111.4 51.8C109.5 51.8 109.5 54.7 111.4 54.7C113.3 54.7 113.3 51.8 111.4 51.8Z" fill="white"/>
<path d="M57.5998 89.1C55.6998 89.1 55.6998 92 57.5998 92C59.4998 92 59.4998 89.1 57.5998 89.1Z" fill="white"/>
<path d="M28.5 93.9C26.6 93.9 26.6 96.8 28.5 96.8C30.4 96.8 30.4 93.9 28.5 93.9Z" fill="white"/>
<path d="M25.6999 64.5C23.7999 64.5 23.7999 67.4 25.6999 67.4C27.5999 67.4 27.5999 64.5 25.6999 64.5Z" fill="white"/>
</g>
</g>
<defs>
<linearGradient id="paint0_linear_477_38" x1="237.371" y1="394.591" x2="237.371" y2="-123.151" gradientUnits="userSpaceOnUse">
<stop offset="0.6406" stop-color="#7DD8D6"/>
<stop offset="1" stop-color="#4591CB"/>
</linearGradient>
<linearGradient id="paint1_linear_477_38" x1="242.461" y1="199.608" x2="242.461" y2="34.9067" gradientUnits="userSpaceOnUse">
<stop stop-color="white" stop-opacity="0"/>
<stop offset="0.9948" stop-color="white"/>
</linearGradient>
<linearGradient id="paint2_linear_477_38" x1="237.647" y1="160.785" x2="237.647" y2="200.927" gradientUnits="userSpaceOnUse">
<stop stop-color="#41A7AF"/>
<stop offset="1" stop-color="#66C6BF"/>
</linearGradient>
<linearGradient id="paint3_linear_477_38" x1="227.717" y1="204.461" x2="242.254" y2="311.062" gradientUnits="userSpaceOnUse">
<stop stop-color="#41A7AF"/>
<stop offset="1" stop-color="#66C6BF"/>
</linearGradient>
<linearGradient id="paint4_linear_477_38" x1="-4.32685" y1="303.628" x2="479.069" y2="303.628" gradientUnits="userSpaceOnUse">
<stop stop-opacity="0"/>
<stop offset="1"/>
</linearGradient>
<linearGradient id="paint5_linear_477_38" x1="265.554" y1="289.484" x2="459.984" y2="465.743" gradientUnits="userSpaceOnUse">
<stop stop-opacity="0"/>
<stop offset="1"/>
</linearGradient>
</defs>
</svg>
